<svg width="115" height="72" viewBox="0 0 115 72" fill="none" xmlns="http://www.w3.org/2000/svg">
  <path d="M79.7011 18.7766C79.7011 28.718 71.4698 36.8033 61.2832 36.8033C51.0967 36.8033 42.8654 28.718 42.8654 18.7766C42.8654 8.83531 51.0967 0.75 61.2832 0.75C71.4698 0.75 79.7011 8.83531 79.7011 18.7766Z" fill="#040402" stroke="white" stroke-width="1.5"/>
  <path d="M70.1476 18.7128C70.1476 23.4691 66.2072 27.3511 61.3137 27.3511C56.4202 27.3511 52.4797 23.4691 52.4797 18.7128C52.4797 13.9565 56.4202 10.0745 61.3137 10.0745C66.2072 10.0745 70.1476 13.9565 70.1476 18.7128Z" fill="#040402" stroke="white" stroke-width="1.5"/>
  <path d="M37.5858 18.7766C37.5858 28.718 29.3545 36.8033 19.1679 36.8033C8.98131 36.8033 0.75 28.718 0.75 18.7766C0.75 8.83531 8.98131 0.75 19.1679 0.75C29.3545 0.75 37.5858 8.83531 37.5858 18.7766Z" fill="#040402" stroke="white" stroke-width="1.5"/>
  <path d="M28.0322 18.7128C28.0322 23.4691 24.0918 27.3511 19.1983 27.3511C14.3048 27.3511 10.3643 23.4691 10.3643 18.7128C10.3643 13.9565 14.3048 10.0745 19.1983 10.0745C24.0918 10.0745 28.0322 13.9565 28.0322 18.7128Z" fill="#040402" stroke="white" stroke-width="1.5"/>
  <rect x="0.5" y="37.7792" width="83.2307" height="32.9898" fill="#040402" stroke="white"/>
  <path d="M84.7234 62.0382V48.3945L114.5 37.5232V71.3204L84.7234 62.0382Z" fill="#040402" stroke="white"/>
</svg>